<?xml version="1.0"?>
<svg id="Layer_1" xmlns="http://www.w3.org/2000/svg" version="1.1" viewBox="0 0 316 33">
  
  <defs>
    
  </defs>
  <path class="st0" d="M188.8,4.1h0c0,6.6-3.1,11.9-6.8,11.9,3.8,0,6.8,5.4,6.8,12.1,0-6.7,3.1-12.1,6.8-12.1-3.7,0-6.8-5.3-6.8-11.9h0Z"></path>
  <path class="st1" d="M42.1,11.1h1.6c.4,0,.7-.3.7-.7v-2.1c0-.4-.3-.7-.7-.7h-1.6c-.4,0-.7-.3-.7-.7h0c0-1,.2-1.6.6-2,.3-.3.8-.5,1.5-.5.4,0,.6-.3.6-.7V1.5c0-.4-.3-.7-.7-.7-2,0-3.5.5-4.6,1.4-1.2,1-1.8,2.5-1.8,4.6v.2c0,.4-.3.7-.7.7h-1.2v3.5h1.2c.4,0,.7.3.7.7v12c0,.4.3.7.7.7h2.9c.4,0,.7-.3.7-.7v-12c0-.4.3-.7.7-.7ZM1,11.5c.7-1.3,1.6-2.3,2.8-3,1.2-.7,2.5-1.1,3.9-1.1s2.1.2,3.1.7c.5.2.9.5,1.2.8.5.4,1.1,0,1.1-.6V2.7c0-.4.3-.7.7-.7h2.9c.4,0,.7.3.7.7v21.8h-4.3v-.7c0-.6-.7-.9-1.1-.6-.3.3-.7.5-1.1.7-.9.5-2,.8-3.3.8s-2.7-.4-3.9-1.1c-1.2-.7-2.1-1.8-2.8-3.1-.7-1.3-1-2.9-1-4.6s.3-3.2,1-4.5ZM12.6,13.4c-.4-.7-.9-1.3-1.6-1.7-.7-.4-1.4-.6-2.2-.6s-1.5.2-2.2.6c-.7.4-1.2.9-1.6,1.7-.4.7-.6,1.6-.6,2.6s.2,1.9.6,2.7c.4.8,1,1.3,1.6,1.7.7.4,1.4.6,2.2.6s1.5-.2,2.2-.6c.7-.4,1.2-1,1.6-1.7.4-.7.6-1.6.6-2.7s-.2-1.9-.6-2.7h0ZM26.7,8.2c.7-.4,1.4-.6,2.2-.7.4,0,.8.3.8.7v3c0,.4-.3.7-.7.7h-.4c-1.3,0-2.3.3-3,.9-.7.6-1,1.7-1,3.3v8.4h-4.2V8.3c0-.4.3-.7.7-.7h2.8c.4,0,.7.3.7.7,0,.6.7.9,1.1.5.3-.3.6-.5,1-.7ZM52.3,8.2c.7-.4,1.4-.6,2.2-.7.4,0,.8.3.8.7v3.1c0,.4-.3.7-.7.7h-.4c-1.3,0-2.3.3-3,.9-.7.6-1,1.7-1,3.3v7.7c0,.4-.3.7-.7.7h-2.9c-.4,0-.7-.3-.7-.7v-15.5c0-.4.3-.7.7-.7h2.9c.4,0,.7.3.7.7h0c0,.6.7,1,1.1.6.3-.3.6-.5,1-.7ZM60.9,17.3h10.8c.4,0,.6-.3.7-.6,0-.3,0-.7,0-1,0-1.6-.3-3.1-1-4.4-.7-1.3-1.7-2.2-2.9-2.9-1.3-.7-2.7-1-4.3-1s-3.1.4-4.4,1.1c-1.3.7-2.3,1.7-3,3-.7,1.3-1.1,2.8-1.1,4.6s.4,3.2,1.1,4.6c.7,1.3,1.7,2.3,3,3.1,1.3.7,2.7,1.1,4.3,1.1s3.7-.5,5-1.6c1.1-.8,1.9-1.8,2.4-3,.2-.5-.1-1-.6-1h-3.2c-.2,0-.5.1-.6.3-.7,1.1-1.7,1.7-3.2,1.7s-2-.3-2.7-1c-.6-.5-.9-1.2-1.1-2-.1-.4.2-.8.7-.8ZM68,13.6c0,.4-.2.8-.7.8h0s-6.3,0-6.3,0c-.5,0-.8-.5-.7-.9.2-.7.6-1.3,1.1-1.8.7-.6,1.6-1,2.6-1s2,.3,2.8,1c.6.5.9,1.1,1.1,1.8ZM74.3,11.5c.7-1.3,1.6-2.3,2.8-3,1.2-.7,2.5-1.1,3.9-1.1s2.1.2,3.1.7c.5.2.9.5,1.3.8.4.4,1.1,0,1.1-.5V2.7c0-.4.3-.7.7-.7h2.9c.4,0,.7.3.7.7v21.1c0,.4-.3.7-.7.7h-2.9c-.4,0-.7-.3-.7-.7,0-.6-.7-.9-1.1-.5-.3.3-.7.5-1.1.7-.9.5-2,.8-3.3.8s-2.7-.4-3.9-1.1c-1.2-.7-2.1-1.8-2.8-3.1-.7-1.3-1-2.9-1-4.6s.3-3.2,1-4.5h0ZM85.8,13.4c-.4-.7-.9-1.3-1.6-1.7-.7-.4-1.4-.6-2.2-.6s-1.5.2-2.2.6c-.7.4-1.2.9-1.6,1.7-.4.7-.6,1.6-.6,2.6s.2,1.9.6,2.7c.4.8,1,1.3,1.6,1.7.7.4,1.4.6,2.2.6s1.5-.2,2.2-.6c.7-.4,1.2-1,1.6-1.7.4-.7.6-1.6.6-2.7s-.2-1.9-.6-2.7ZM97.6,17.3h10.8c.4,0,.6-.3.7-.6,0-.3,0-.7,0-1,0-1.6-.3-3.1-1-4.4-.7-1.3-1.7-2.2-2.9-2.9-1.3-.7-2.7-1-4.3-1s-3.1.4-4.4,1.1c-1.3.7-2.3,1.7-3,3-.7,1.3-1.1,2.8-1.1,4.6s.4,3.2,1.1,4.6c.7,1.3,1.7,2.3,3,3.1,1.3.7,2.7,1.1,4.3,1.1s3.7-.5,5-1.6c1.1-.8,1.9-1.8,2.4-3,.2-.5-.1-1-.6-1h-3.2c-.2,0-.5.1-.6.3-.7,1.1-1.7,1.7-3.2,1.7s-2-.3-2.7-1c-.6-.5-.9-1.2-1.1-2-.1-.4.2-.8.7-.8ZM104.7,13.6c0,.4-.2.8-.7.8h0s-6.3,0-6.3,0c-.5,0-.8-.5-.7-.9.2-.7.6-1.3,1.1-1.8.7-.6,1.6-1,2.6-1s2,.3,2.8,1c.6.5.9,1.1,1.1,1.8ZM117.4,8.2c.7-.4,1.4-.6,2.2-.7.4,0,.8.3.8.7v3.1c0,.4-.3.7-.7.7h-.4c-1.3,0-2.3.3-3,.9-.7.6-1,1.7-1,3.3v7.7c0,.4-.3.7-.7.7h-2.9c-.4,0-.7-.3-.7-.7v-15.5c0-.4.3-.7.7-.7h2.9c.4,0,.7.3.7.7h0c0,.6.7,1,1.1.6.3-.3.6-.5,1-.7ZM126.2,23.8v-15.5c0-.4-.3-.7-.7-.7h-2.9c-.4,0-.7.3-.7.7v15.5c0,.4.3.7.7.7h2.9c.4,0,.7-.3.7-.7ZM129.2,11.5c.7-1.3,1.7-2.3,2.9-3,1.2-.7,2.7-1.1,4.3-1.1s3.8.5,5.1,1.6c1.1.9,1.9,2,2.5,3.5.2.4-.2.9-.6.9h-3.2c-.3,0-.5-.2-.6-.4-.2-.5-.6-1-1.1-1.3-.6-.4-1.3-.6-2.1-.6-1.2,0-2.2.4-2.9,1.3-.7.9-1.1,2.1-1.1,3.8s.4,2.8,1.1,3.7c.7.9,1.7,1.3,2.9,1.3s2.6-.6,3.2-1.9c.1-.2.4-.4.6-.4h3.2c.5,0,.8.5.6.9-.5,1.4-1.3,2.5-2.5,3.4-1.4,1.1-3.1,1.6-5.1,1.6s-3-.4-4.3-1.1c-1.2-.7-2.2-1.7-2.9-3-.7-1.3-1.1-2.8-1.1-4.6s.4-3.3,1.1-4.6h0ZM151.6,18.9l4.3,5.4h0c.1.2.3.3.5.3h3.6c.6,0,.9-.7.5-1.1l-6-6.8c-.2-.3-.2-.7,0-.9l6-6.9c.4-.4,0-1.1-.5-1.1h-3.7c-.2,0-.4,0-.5.3l-4.2,5.3c-.4.5-1.2.2-1.2-.4V2.7c0-.4-.3-.7-.7-.7h-2.9c-.4,0-.7.3-.7.7v21.1c0,.4.3.7.7.7h2.9c.4,0,.7-.3.7-.7v-4.5c0-.7.8-.9,1.2-.4ZM164,3.3h2.9c.5,0,.8.5.6,1l-2.7,6.3c-.1.3-.4.4-.6.4h-1.6c-.4,0-.8-.4-.7-.8l1.4-6.3c0-.3.3-.5.7-.5h0ZM167.2,22c.6.9,1.5,1.5,2.6,2h0c1.1.5,2.3.7,3.7.7s2.5-.2,3.5-.7c1-.4,1.8-1,2.3-1.8.5-.8.8-1.6.8-2.6,0-1.1-.3-2-.9-2.7-.6-.7-1.3-1.2-2-1.5-.8-.3-1.8-.6-3-.9-1.2-.3-2.1-.6-2.6-.9-.6-.3-.8-.7-.8-1.3s.2-.9.6-1.2c.4-.3,1-.4,1.8-.4s1.5.2,2,.6c.4.3.6.7.7,1.1,0,.3.4.5.6.5h2.7c.4,0,.8-.4.7-.8-.2-1.3-.9-2.4-1.9-3.2-1.2-1-2.8-1.5-4.8-1.5s-2.5.2-3.5.7c-1,.4-1.8,1.1-2.3,1.8-.5.8-.8,1.6-.8,2.6s.3,2,.9,2.7c.6.7,1.3,1.2,2.1,1.5.8.3,1.8.6,3.1.9,1.2.3,2.1.6,2.6.9.6.3.8.7.8,1.2s-.2.9-.7,1.2c-.5.3-1.1.5-1.9.5s-1.5-.2-2.1-.6c-.4-.3-.7-.7-.8-1.1,0-.3-.4-.5-.7-.5h-2.9c-.4,0-.8.4-.7.8.2.7.5,1.4.9,2ZM30.9,26.1c1.3,0,2.3-1,2.3-2.3s-1-2.3-2.3-2.3-2.3,1-2.3,2.3,1,2.3,2.3,2.3ZM308,3v20.9c0,.3-.3.6-.6.6h-3.2c-.4,0-.6-.3-.6-.6V3c0-.3.3-.6.6-.6h3.2c.4,0,.6.3.6.6ZM309.8,7.9c0,1.2,1,2.2,2.3,2.2s2.3-1,2.3-2.2-1-2.2-2.3-2.2-2.3,1-2.3,2.2ZM310.3,7.9c0-1,.8-1.8,1.8-1.8s1.8.8,1.8,1.8-.8,1.8-1.8,1.8-1.8-.8-1.8-1.8ZM313.1,9l-.6-.9c.3-.1.5-.4.5-.6,0-.4-.4-.7-.8-.7h-.8v2.2h.5v-.8h.2l.5.8h.6ZM311.8,7.3h.3c.2,0,.4,0,.4.3s-.2.3-.4.3h-.3v-.6ZM197.9,20.7c.8,1.3,1.8,2.3,3.2,3,1.4.7,2.9,1.1,4.6,1.1s3.3-.4,4.6-1.1c1.4-.7,2.5-1.7,3.3-3,.8-1.3,1.2-2.8,1.2-4.5s-.4-3.2-1.2-4.5c-.8-1.3-1.9-2.3-3.2-3-1.4-.7-2.9-1.1-4.6-1.1s-3.2.4-4.6,1.1c-1.4.7-2.5,1.7-3.2,3-.8,1.3-1.2,2.8-1.2,4.5s.4,3.2,1.2,4.5ZM209.6,18.9c-.4.7-1,1.3-1.7,1.7h0c-.7.4-1.5.6-2.3.6-1.3,0-2.3-.4-3.2-1.3-.8-.8-1.3-2.1-1.3-3.6s.4-2.8,1.3-3.6c.9-.8,1.9-1.3,3.2-1.3s2.3.4,3.2,1.3c.9.8,1.3,2.1,1.3,3.6s-.2,2-.6,2.7ZM223.5,8.4c.7-.4,1.6-.6,2.5-.7.4,0,.7.2.7.6v3.2c0,.3-.3.6-.6.6h-.5c-1.4,0-2.4.3-3.2.9-.7.6-1.1,1.7-1.1,3.2v7.6c0,.3-.3.6-.6.6h-3.2c-.4,0-.6-.3-.6-.6v-15.3c0-.3.3-.6.6-.6h3.2c.4,0,.6.3.6.6v.3c0,.5.7.8,1.1.4.3-.3.7-.6,1.2-.8h0ZM232.8,23.9v-15.3c0-.3-.3-.6-.6-.6h-3.2c-.4,0-.6.3-.6.6v15.3c0,.3.3.6.6.6h3.2c.4,0,.6-.3.6-.6ZM246.2,8.4c.5.2.9.5,1.3.8.4.3,1,0,1-.5v-.2c0-.3.3-.6.6-.6h3.2c.4,0,.6.3.6.6v16.1c0,1.5-.3,2.9-1,4.1-.7,1.2-1.6,2.2-2.9,2.9-1.3.7-2.9,1.1-4.8,1.1s-4.5-.5-6.1-1.6c-1.6-1.1-2.5-2.6-2.7-4.5h4.4c.2.8.7,1.4,1.5,1.8.8.4,1.7.7,2.8.7s2.3-.4,3.1-1.1c.8-.7,1.2-1.8,1.2-3.3v-1c0-.5-.6-.8-1.1-.5-.4.3-.8.6-1.3.8-1,.5-2.1.8-3.4.8s-2.8-.4-4.1-1.1c-1.2-.7-2.2-1.7-2.9-3-.7-1.3-1.1-2.8-1.1-4.5s.4-3.2,1.1-4.5c.7-1.3,1.7-2.3,2.9-3,1.2-.7,2.6-1,4.1-1s2.5.2,3.5.7h0ZM248,13.6c-.4-.7-1-1.3-1.7-1.7-.7-.4-1.5-.6-2.3-.6s-1.6.2-2.3.6c-.7.4-1.3.9-1.7,1.7-.4.7-.6,1.6-.6,2.6s.2,1.9.6,2.6c.4.7,1,1.3,1.7,1.7.7.4,1.5.6,2.3.6s1.6-.2,2.3-.6c.7-.4,1.3-.9,1.7-1.7.4-.7.6-1.6.6-2.6s-.2-1.9-.6-2.6h0ZM260.6,23.9v-15.3c0-.3-.3-.6-.6-.6h-3.2c-.4,0-.6.3-.6.6v15.3c0,.3.3.6.6.6h3.2c.4,0,.6-.3.6-.6ZM278.5,9.6c1.3,1.2,1.9,3,1.9,5.2v9.1c0,.3-.3.6-.6.6h-3.2c-.4,0-.6-.3-.6-.6v-8.5c0-1.3-.3-2.3-1-3-.7-.7-1.6-1.1-2.9-1.1s-2.2.4-2.9,1.1c-.7.7-1.1,1.7-1.1,3v8.5c0,.3-.3.6-.6.6h-3.2c-.4,0-.6-.3-.6-.6v-15.3c0-.3.3-.6.6-.6h3.2c.4,0,.6.3.6.6,0,.5.6.8,1,.5.4-.3.8-.5,1.2-.7.9-.4,1.9-.6,3-.6,2.1,0,3.8.6,5.1,1.9ZM286.2,8.7c-1.2.7-2.2,1.7-2.9,3-.7,1.3-1.1,2.8-1.1,4.5s.4,3.2,1.1,4.5c.7,1.3,1.7,2.3,2.9,3,1.2.7,2.6,1.1,4,1.1s2.5-.3,3.5-.8c.5-.2.9-.5,1.3-.8.4-.3,1.1,0,1.1.5v.3c0,.3.3.6.6.6h3.2c.4,0,.6-.3.6-.6v-15.3c0-.3-.3-.6-.6-.6h-3.2c-.4,0-.6.3-.6.6v.2c0,.5-.6.8-1,.5-.4-.3-.8-.6-1.3-.8-1-.5-2.1-.7-3.4-.7s-2.9.3-4.1,1ZM293.7,11.9c.7.4,1.3.9,1.7,1.7.4.7.6,1.6.6,2.6s-.2,1.9-.6,2.6c-.4.7-1,1.3-1.7,1.7-.7.4-1.5.6-2.3.6s-1.6-.2-2.3-.6c-.7-.4-1.3-1-1.7-1.7-.4-.7-.6-1.6-.6-2.6s.2-1.9.6-2.6c.4-.7,1-1.3,1.7-1.7.7-.4,1.5-.6,2.3-.6s1.6.2,2.3.6Z"></path>
</svg>