<svg width="316" height="33" viewBox="0 0 316 33" fill="none" xmlns="http://www.w3.org/2000/svg">
<path d="M188.847 4.0616C188.847 4.0616 188.844 4.0616 188.843 4.0616C188.842 4.0616 188.841 4.0616 188.84 4.0616C188.766 10.6551 185.737 15.961 182.008 15.9641C185.783 15.9677 188.843 21.4047 188.843 28.111C188.843 21.4044 191.903 15.9677 195.678 15.9644C191.949 15.9607 188.92 10.6548 188.846 4.0616H188.847Z" fill="#F3821E"></path>
<path fill-rule="evenodd" clip-rule="evenodd" d="M42.1486 11.1406H43.7124H43.7127C44.0895 11.1406 44.395 10.8328 44.395 10.4531V8.32949C44.395 7.94976 44.0895 7.64195 43.7127 7.64195H42.1489C41.772 7.64195 41.4666 7.33414 41.4666 6.95441V6.94222C41.4666 5.98892 41.6677 5.32972 42.0705 4.96462C42.3838 4.68028 42.8871 4.51296 43.5793 4.46237C43.9362 4.43647 44.2138 4.1381 44.2138 3.77727V1.54306C44.2138 1.15753 43.8987 0.847285 43.5164 0.854904C41.508 0.894523 39.9793 1.35167 38.9305 2.22664C37.7628 3.20035 37.1794 4.72142 37.1794 6.79014V6.95441C37.1794 7.33414 36.874 7.64195 36.4971 7.64195H35.2775V11.1406H36.4971C36.874 11.1406 37.1794 11.4484 37.1794 11.8282V23.8087C37.1794 24.1884 37.4849 24.4962 37.8617 24.4962H40.784C41.1608 24.4962 41.4663 24.1884 41.4663 23.8087V11.8282C41.4663 11.4484 41.7717 11.1406 42.1486 11.1406ZM1.01131 11.4749C1.68541 10.1568 2.60599 9.14289 3.77365 8.43279C4.94071 7.723 6.23871 7.36795 7.66797 7.36795C8.75488 7.36795 9.79099 7.60658 10.7775 8.08292C11.2336 8.30357 11.6467 8.55774 12.0168 8.84544C12.4723 9.19957 13.1322 8.87165 13.1322 8.29199V2.68224C13.1322 2.29611 13.4428 1.98312 13.8259 1.98312H16.7253C17.1084 1.98312 17.419 2.29611 17.419 2.68224V24.4959H13.1322V23.8425C13.1322 23.254 12.4502 22.916 12.0005 23.2912C11.6796 23.5587 11.3225 23.798 10.9284 24.0092C9.98212 24.5157 8.88553 24.7696 7.63773 24.7696C6.22873 24.7696 4.9404 24.4044 3.77365 23.6742C2.60629 22.944 1.68541 21.9149 1.01131 20.5864C0.336598 19.2582 0 17.732 0 16.008C0 14.3043 0.336901 12.7936 1.01131 11.4749ZM12.5588 13.4071C12.1559 12.6668 11.6125 12.0991 10.9287 11.7035C10.2443 11.3079 9.50973 11.1104 8.72494 11.1104C7.94015 11.1104 7.21554 11.3033 6.55142 11.6883C5.88729 12.0738 5.34868 12.6367 4.93617 13.3769C4.52336 14.1175 4.31741 14.9946 4.31741 16.0086C4.31741 17.0225 4.52366 17.91 4.93617 18.6704C5.34837 19.431 5.89183 20.0144 6.56624 20.4197C7.24034 20.8256 7.95981 21.0283 8.72464 21.0283C9.50973 21.0283 10.244 20.8305 10.9284 20.4352C11.6125 20.0396 12.1556 19.4722 12.5585 18.7316C12.9607 17.9913 13.1624 17.1039 13.1624 16.0695C13.1624 15.0352 12.961 14.148 12.5585 13.4074L12.5588 13.4071ZM26.7023 8.15912C27.3715 7.77176 28.114 7.53222 28.9305 7.44079C29.3433 7.39447 29.7062 7.71721 29.7062 8.13595V11.1717C29.7062 11.5578 29.3956 11.8708 29.0125 11.8708H28.5894C27.2611 11.8708 26.2595 12.1856 25.5854 12.814C24.911 13.4428 24.5741 14.5381 24.5741 16.0997V24.4965H20.3474V8.34106C20.3474 7.95492 20.658 7.64193 21.0412 7.64193H23.8803C24.2635 7.64193 24.5741 7.95492 24.5741 8.34106C24.5741 8.939 25.2763 9.26753 25.72 8.87043C26.0203 8.60163 26.3475 8.36452 26.7023 8.15912ZM52.2888 8.15913C52.9617 7.76965 53.7084 7.5295 54.5301 7.43929C54.9363 7.39449 55.2928 7.71113 55.2928 8.12287V11.1833C55.2928 11.563 54.9874 11.8708 54.6105 11.8708H54.176C52.8477 11.8708 51.8461 12.1856 51.172 12.8141C50.4973 13.4428 50.1607 14.5381 50.1607 16.0997V23.809C50.1607 24.1887 49.8552 24.4965 49.4784 24.4965H46.6163C46.2394 24.4965 45.934 24.1887 45.934 23.809V8.32949C45.934 7.94976 46.2394 7.64195 46.6163 7.64195H49.4784C49.8552 7.64195 50.1607 7.94976 50.1607 8.32949V8.36637C50.1607 8.95456 50.8532 9.27974 51.2878 8.88721C51.593 8.6117 51.9268 8.36881 52.2888 8.15913ZM60.9185 17.3468H71.7477C72.0985 17.3468 72.3955 17.0795 72.427 16.7272C72.4554 16.4078 72.4699 16.0668 72.4699 15.7041C72.4699 14.0612 72.1227 12.6062 71.4284 11.3384C70.734 10.0712 69.7575 9.09231 68.5 8.40264C67.2419 7.71357 65.8178 7.36828 64.2282 7.36828C62.5776 7.36828 61.1187 7.72332 59.8507 8.43311C58.5826 9.14321 57.5964 10.1572 56.892 11.4752C56.1874 12.794 55.8354 14.3251 55.8354 16.0692C55.8354 17.7936 56.1925 19.3146 56.9072 20.6327C57.6215 21.9511 58.6177 22.9703 59.896 23.6901C61.1738 24.4103 62.6178 24.7702 64.2282 24.7702C66.2206 24.7702 67.9009 24.2484 69.27 23.2034C70.3572 22.3738 71.1653 21.3614 71.6936 20.1664C71.8938 19.7136 71.5596 19.2028 71.0676 19.2028H67.8976C67.6602 19.2028 67.4352 19.3229 67.3133 19.5283C66.6352 20.6702 65.5768 21.241 64.1378 21.241C63.0509 21.241 62.1349 20.8964 61.3906 20.2067C60.8257 19.684 60.4461 19.0093 60.252 18.1831C60.1513 17.7552 60.4824 17.3468 60.9185 17.3468ZM67.9931 13.6397C68.092 14.0724 67.769 14.4869 67.3284 14.4869L67.3281 14.4872H61.0041C60.5417 14.4872 60.2127 14.0328 60.3536 13.5891C60.5813 12.8726 60.9521 12.2847 61.4659 11.8251C62.1802 11.1863 63.0609 10.8669 64.1076 10.8669C65.2145 10.8669 66.1502 11.1967 66.9153 11.8556C67.4715 12.335 67.8307 12.9296 67.9931 13.6397ZM74.266 11.4749C74.9401 10.1568 75.8607 9.1429 77.0284 8.43281C78.1954 7.72302 79.4934 7.36797 80.9227 7.36797C82.0096 7.36797 83.0457 7.6066 84.0322 8.08294C84.4958 8.30725 84.9153 8.5663 85.29 8.85978C85.7367 9.20995 86.3869 8.88568 86.3869 8.31548V2.67068C86.3869 2.29094 86.6923 1.98313 87.0691 1.98313H89.9915C90.3683 1.98313 90.6737 2.29094 90.6737 2.67068V23.8084C90.6737 24.1881 90.3683 24.4959 89.9915 24.4959H87.0691C86.6923 24.4959 86.3869 24.1881 86.3869 23.8084C86.3869 23.2196 85.7082 22.9127 85.2582 23.2884C84.9367 23.5569 84.5784 23.7974 84.1828 24.0092C83.2365 24.5157 82.1399 24.7696 80.8921 24.7696C79.4831 24.7696 78.1948 24.4045 77.0278 23.6743C75.8604 22.944 74.9395 21.9149 74.2654 20.5864C73.5907 19.2583 73.2541 17.732 73.2541 16.008C73.2541 14.3044 73.5907 12.7936 74.2654 11.4749H74.266ZM85.8135 13.4071C85.4107 12.6669 84.8672 12.0991 84.1831 11.7035C83.4987 11.3079 82.7641 11.1104 81.9793 11.1104C81.1946 11.1104 80.4699 11.3034 79.8058 11.6883C79.1417 12.0738 78.6031 12.6367 78.1906 13.377C77.7778 14.1175 77.5718 14.9946 77.5718 16.0086C77.5718 17.0225 77.7781 17.91 78.1906 18.6704C78.6028 19.4311 79.1462 20.0144 79.8206 20.4197C80.4947 20.8256 81.2142 21.0283 81.9793 21.0283C82.7641 21.0283 83.4987 20.8305 84.1831 20.4352C84.8672 20.0397 85.4104 19.4722 85.8135 18.7316C86.2157 17.9914 86.4174 17.1039 86.4174 16.0695C86.4174 15.0352 86.216 14.1477 85.8135 13.4071ZM97.5981 17.3468H108.427C108.778 17.3468 109.075 17.0795 109.107 16.7272C109.135 16.4078 109.149 16.0668 109.149 15.7041C109.149 14.0612 108.802 12.6062 108.108 11.3384C107.414 10.0712 106.437 9.09231 105.18 8.40264C103.921 7.71357 102.497 7.36828 100.908 7.36828C99.2571 7.36828 97.7983 7.72332 96.5302 8.43311C95.2621 9.14321 94.2759 10.1572 93.5716 11.4752C92.8669 12.794 92.5149 14.3251 92.5149 16.0692C92.5149 17.7936 92.8721 19.3146 93.5867 20.6327C94.301 21.9511 95.2972 22.9703 96.5756 23.6901C97.8533 24.4103 99.2974 24.7702 100.908 24.7702C102.9 24.7702 104.58 24.2484 105.949 23.2034C107.037 22.3738 107.845 21.3614 108.373 20.1664C108.573 19.7136 108.239 19.2028 107.747 19.2028H104.577C104.34 19.2028 104.115 19.3229 103.993 19.5283C103.315 20.6702 102.256 21.241 100.817 21.241C99.7304 21.241 98.8144 20.8964 98.0701 20.2067C97.5052 19.684 97.1257 19.0093 96.9315 18.1831C96.8308 17.7552 97.1619 17.3468 97.5981 17.3468ZM104.673 13.6397C104.772 14.0724 104.449 14.4869 104.008 14.4869L104.008 14.4872H97.6836C97.2212 14.4872 96.8922 14.0328 97.0331 13.5891C97.2608 12.8726 97.6316 12.2847 98.1454 11.8251C98.8598 11.1863 99.7404 10.8669 100.787 10.8669C101.894 10.8669 102.83 11.1967 103.595 11.8556C104.151 12.335 104.51 12.9296 104.673 13.6397ZM117.376 8.15913C118.049 7.76965 118.796 7.5295 119.617 7.43929C120.023 7.39449 120.38 7.71113 120.38 8.12287V11.1833C120.38 11.563 120.075 11.8708 119.698 11.8708H119.263C117.935 11.8708 116.933 12.1856 116.259 12.8141C115.584 13.4428 115.248 14.5381 115.248 16.0997V23.809C115.248 24.1887 114.942 24.4965 114.566 24.4965H111.703C111.327 24.4965 111.021 24.1887 111.021 23.809V8.32949C111.021 7.94976 111.327 7.64195 111.703 7.64195H114.566C114.942 7.64195 115.248 7.94976 115.248 8.32949V8.36637C115.248 8.95456 115.94 9.27974 116.375 8.88721C116.68 8.6117 117.014 8.36881 117.376 8.15913ZM126.236 23.8087V8.32949C126.236 7.94976 125.931 7.64195 125.554 7.64195H122.692C122.315 7.64195 122.01 7.94976 122.01 8.32949V23.8087C122.01 24.1884 122.315 24.4962 122.692 24.4962H125.554C125.931 24.4962 126.236 24.1884 126.236 23.8087ZM129.165 11.4905C129.869 10.1824 130.845 9.1685 132.093 8.44835C133.341 7.7285 134.77 7.36828 136.38 7.36828C138.453 7.36828 140.169 7.89064 141.527 8.93506C142.656 9.80332 143.476 10.9614 143.986 12.4106C144.144 12.8592 143.815 13.3312 143.343 13.3312H140.163C139.899 13.3312 139.656 13.1783 139.547 12.936C139.3 12.3911 138.944 11.9501 138.478 11.6124C137.904 11.1967 137.195 10.9885 136.349 10.9885C135.142 10.9885 134.186 11.4298 133.482 12.3121C132.777 13.1944 132.425 14.447 132.425 16.0692C132.425 17.6717 132.777 18.9139 133.482 19.7962C134.186 20.6784 135.142 21.1194 136.349 21.1194C137.907 21.1194 138.973 20.4804 139.546 19.2019C139.655 18.9596 139.899 18.8075 140.163 18.8075H143.333C143.811 18.8075 144.137 19.2896 143.971 19.7416C143.458 21.1344 142.638 22.2733 141.512 23.1577C140.143 24.2329 138.433 24.7699 136.38 24.7699C134.769 24.7699 133.341 24.41 132.093 23.6898C130.845 22.97 129.869 21.9557 129.164 20.6477C128.46 19.3396 128.108 17.8137 128.108 16.0689C128.108 14.3242 128.46 12.7985 129.164 11.4902L129.165 11.4905ZM151.603 18.8544L155.858 24.2368L155.859 24.2365C155.988 24.4002 156.184 24.4956 156.392 24.4956H160.036C160.625 24.4956 160.937 23.7937 160.545 23.3506L154.532 16.5529C154.303 16.2938 154.302 15.9028 154.529 15.642L160.504 8.78268C160.891 8.33833 160.578 7.64165 159.991 7.64165H156.333C156.124 7.64165 155.928 7.73765 155.798 7.90252L151.605 13.2413C151.204 13.7524 150.388 13.4663 150.388 12.8147V2.67068C150.388 2.29094 150.082 1.98313 149.705 1.98313H146.844C146.467 1.98313 146.161 2.29094 146.161 2.67068V23.8087C146.161 24.1884 146.467 24.4962 146.844 24.4962H149.705C150.082 24.4962 150.388 24.1884 150.388 23.8087V19.2829C150.388 18.6323 151.201 18.3455 151.603 18.8544ZM163.974 3.261H166.832C167.322 3.261 167.653 3.76569 167.46 4.21948L164.784 10.511C164.677 10.7636 164.43 10.9276 164.157 10.9276H162.562C162.125 10.9276 161.8 10.5183 161.897 10.0883L163.309 3.79677C163.379 3.48348 163.655 3.261 163.974 3.261H163.974ZM167.196 22.0014C167.83 22.8532 168.69 23.5277 169.777 24.0244L169.777 24.025C170.864 24.5218 172.092 24.7705 173.461 24.7705C174.789 24.7705 175.951 24.5523 176.947 24.1165C177.944 23.6804 178.708 23.0772 179.242 22.3062C179.775 21.5354 180.042 20.6632 180.042 19.6898C180.021 18.5747 179.724 17.6772 179.151 16.9975C178.577 16.3179 177.898 15.816 177.113 15.4914C176.328 15.1674 175.332 14.8526 174.124 14.5485C172.936 14.244 172.061 13.945 171.498 13.6509C170.934 13.3572 170.653 12.9262 170.653 12.3581C170.653 11.8516 170.859 11.456 171.272 11.1717C171.684 10.888 172.273 10.7456 173.038 10.7456C173.863 10.7456 174.521 10.9431 175.015 11.3387C175.384 11.6349 175.632 12.008 175.759 12.4575C175.84 12.7452 176.112 12.936 176.409 12.936H179.116C179.545 12.936 179.866 12.5407 179.786 12.1156C179.538 10.792 178.918 9.71159 177.928 8.87441C176.741 7.87022 175.151 7.36828 173.158 7.36828C171.81 7.36828 170.637 7.59167 169.641 8.03753C168.645 8.48401 167.88 9.09262 167.347 9.86306C166.813 10.6341 166.547 11.4859 166.547 12.4185C166.547 13.5546 166.834 14.4567 167.407 15.126C167.981 15.7952 168.665 16.2923 169.46 16.6166C170.255 16.9415 171.276 17.2554 172.524 17.5598C173.732 17.8847 174.612 18.1837 175.166 18.4573C175.719 18.7313 175.996 19.1418 175.996 19.6895C175.996 20.1966 175.77 20.6126 175.317 20.9366C174.864 21.2615 174.235 21.4236 173.43 21.4236C172.605 21.4236 171.915 21.2109 171.362 20.7848C170.947 20.4654 170.665 20.0832 170.516 19.6383C170.421 19.3546 170.145 19.1723 169.847 19.1723H166.937C166.504 19.1723 166.174 19.5743 166.268 19.9997C166.426 20.715 166.735 21.3824 167.196 22.0014ZM30.925 26.1337C32.2055 26.1337 33.2436 25.0876 33.2436 23.7971C33.2436 22.5066 32.2055 21.4605 30.925 21.4605C29.6444 21.4605 28.6063 22.5066 28.6063 23.7971C28.6063 25.0876 29.6444 26.1337 30.925 26.1337ZM308.003 2.98584V23.8767C308.003 24.2107 307.716 24.4816 307.361 24.4816H304.209C303.854 24.4816 303.566 24.2107 303.566 23.8767V2.98584C303.566 2.65182 303.854 2.38088 304.209 2.38088H307.361C307.715 2.38088 308.003 2.65182 308.003 2.98584ZM309.781 7.93914C309.781 9.16581 310.827 10.1648 312.103 10.1648C313.372 10.1648 314.418 9.16581 314.418 7.93914C314.418 6.70608 313.372 5.70737 312.103 5.70737C310.827 5.70737 309.781 6.70608 309.781 7.93914ZM310.297 7.93884C310.297 6.96482 311.095 6.16329 312.103 6.16329C313.104 6.16329 313.901 6.96482 313.901 7.93884C313.901 8.90646 313.103 9.70829 312.103 9.70829C311.095 9.70829 310.297 8.90676 310.297 7.93884ZM313.143 9.04878L312.521 8.1671C312.809 8.05008 312.992 7.81571 312.992 7.52589C312.992 7.08825 312.639 6.8292 312.148 6.8292H311.33V9.04878H311.828V8.24726H312.018L312.554 9.04878H313.143ZM311.828 7.25465H312.129C312.325 7.25465 312.482 7.3537 312.482 7.53838C312.482 7.72307 312.325 7.82821 312.129 7.82821H311.828V7.25465ZM197.937 20.6885C198.708 21.9832 199.769 22.9837 201.121 23.6901C202.473 24.3972 203.995 24.7504 205.685 24.7504C207.396 24.7504 208.943 24.3972 210.327 23.6901C211.71 22.9834 212.809 21.9832 213.622 20.6885C214.435 19.3945 214.842 17.9009 214.842 16.2085C214.842 14.5162 214.446 13.0229 213.654 11.7285C212.862 10.4345 211.779 9.43399 210.406 8.72694C209.033 8.0205 207.502 7.66667 205.811 7.66667C204.121 7.66667 202.59 8.0205 201.217 8.72694C199.843 9.43399 198.761 10.4345 197.969 11.7285C197.177 13.0232 196.78 14.5159 196.78 16.2085C196.78 17.9012 197.165 19.3945 197.937 20.6885ZM209.646 18.8965C209.223 19.6335 208.658 20.186 207.95 20.5541L207.951 20.5538C207.243 20.9226 206.488 21.1064 205.685 21.1064C204.418 21.1064 203.367 20.6837 202.532 19.837C201.697 18.991 201.281 17.7811 201.281 16.2085C201.281 14.636 201.708 13.4264 202.564 12.5797C203.419 11.7337 204.481 11.3104 205.748 11.3104C207.016 11.3104 208.088 11.7337 208.965 12.5797C209.841 13.4264 210.279 14.636 210.279 16.2085C210.279 17.2639 210.068 18.1602 209.646 18.8965ZM223.508 8.44351C224.243 8.0458 225.062 7.80656 225.966 7.72671C226.34 7.6938 226.661 7.97631 226.661 8.33014V11.482C226.661 11.816 226.374 12.0869 226.019 12.0869H225.489C224.095 12.0869 223.043 12.396 222.336 13.0128C221.628 13.63 221.274 14.7055 221.274 16.2384V23.8764C221.274 24.2104 220.987 24.4813 220.632 24.4813H217.48C217.125 24.4813 216.838 24.2104 216.838 23.8764V8.54104C216.838 8.20702 217.125 7.93608 217.48 7.93608H220.632C220.987 7.93608 221.274 8.20702 221.274 8.54104V8.80709C221.274 9.33677 221.944 9.60984 222.354 9.24747C222.702 8.93997 223.087 8.67208 223.508 8.44382L223.508 8.44351ZM232.809 23.8767V8.54104C232.809 8.20702 232.521 7.93608 232.167 7.93608H229.014C228.659 7.93608 228.372 8.20702 228.372 8.54104V23.8767C228.372 24.2107 228.66 24.4816 229.014 24.4816H232.167C232.521 24.4816 232.809 24.2107 232.809 23.8767ZM246.244 8.39871C246.726 8.63551 247.157 8.90614 247.54 9.2106C247.954 9.54066 248.589 9.25509 248.589 8.74401V8.54104C248.589 8.20702 248.876 7.93608 249.231 7.93608H252.415C252.769 7.93608 253.057 8.20702 253.057 8.54104V24.6011C253.057 26.134 252.729 27.5027 252.075 28.7077C251.42 29.9122 250.437 30.8679 249.128 31.5746C247.818 32.2811 246.233 32.6349 244.374 32.6349C241.882 32.6349 239.838 32.0869 238.243 30.9922C236.648 29.8969 235.745 28.4036 235.533 26.5122H239.938C240.17 27.2687 240.672 27.8712 241.443 28.3192C242.214 28.7672 243.149 28.9912 244.247 28.9912C245.536 28.9912 246.582 28.6276 247.385 27.901C248.187 27.1739 248.588 26.074 248.588 24.6008V23.5923C248.588 23.0785 247.948 22.7941 247.535 23.1291C247.15 23.4411 246.714 23.7224 246.228 23.9736C245.224 24.4911 244.078 24.7501 242.789 24.7501C241.311 24.7501 239.958 24.3917 238.733 23.6749C237.508 22.9581 236.541 21.9478 235.834 20.6434C235.126 19.3397 234.773 17.8412 234.773 16.1488C234.773 14.4763 235.126 12.9933 235.834 11.6987C236.541 10.4047 237.503 9.4093 238.718 8.71201C239.932 8.01532 241.289 7.66667 242.789 7.66667C244.099 7.66667 245.25 7.91079 246.243 8.39841L246.244 8.39871ZM247.955 13.5955C247.532 12.869 246.962 12.3112 246.244 11.923C245.526 11.5347 244.755 11.3406 243.931 11.3406C243.107 11.3406 242.346 11.5298 241.649 11.908C240.952 12.2866 240.387 12.8391 239.954 13.5656C239.521 14.2928 239.304 15.1538 239.304 16.1491C239.304 17.1445 239.521 18.0158 239.954 18.7621C240.387 19.5088 240.957 20.0815 241.665 20.4795C242.372 20.8781 243.128 21.0768 243.931 21.0768C244.754 21.0768 245.525 20.8827 246.244 20.4944C246.962 20.1061 247.532 19.549 247.955 18.8219C248.377 18.0953 248.589 17.224 248.589 16.2085C248.589 15.1931 248.377 14.3224 247.955 13.5952L247.955 13.5955ZM260.567 23.8767V8.54104C260.567 8.20702 260.279 7.93608 259.925 7.93608H256.772C256.418 7.93608 256.13 8.20702 256.13 8.54104V23.8767C256.13 24.2107 256.418 24.4816 256.772 24.4816H259.925C260.28 24.4816 260.567 24.2107 260.567 23.8767ZM278.47 9.56351C279.759 10.8082 280.404 12.5453 280.404 14.7749V23.8764C280.404 24.2104 280.116 24.4813 279.761 24.4813H276.609C276.255 24.4813 275.967 24.2104 275.967 23.8764V15.3424C275.967 14.0283 275.618 13.018 274.921 12.3109C274.224 11.6045 273.274 11.2507 272.069 11.2507C270.844 11.2507 269.877 11.6045 269.17 12.3109C268.462 13.018 268.108 14.0283 268.108 15.3424V23.8764C268.108 24.2104 267.821 24.4813 267.466 24.4813H264.314C263.96 24.4813 263.672 24.2104 263.672 23.8764V8.54104C263.672 8.20702 263.959 7.93608 264.314 7.93608H267.466C267.821 7.93608 268.108 8.20702 268.108 8.54104C268.108 9.04115 268.72 9.33128 269.138 9.02286C269.51 8.74797 269.922 8.50995 270.374 8.30942C271.293 7.90165 272.302 7.69715 273.4 7.69715C275.492 7.69715 277.181 8.31947 278.47 9.56351ZM286.154 8.71231C284.939 9.40961 283.978 10.405 283.271 11.699C282.563 12.9936 282.209 14.4766 282.209 16.1491C282.209 17.8415 282.563 19.34 283.271 20.6437C283.978 21.9481 284.939 22.9584 286.154 23.6752C287.369 24.392 288.715 24.7504 290.194 24.7504C291.504 24.7504 292.66 24.4965 293.664 23.9888C294.151 23.7423 294.588 23.464 294.973 23.1538C295.387 22.821 296.025 23.1059 296.025 23.6185V23.8767C296.025 24.2107 296.313 24.4816 296.667 24.4816H299.851C300.206 24.4816 300.493 24.2107 300.493 23.8767V8.54104C300.493 8.20702 300.205 7.93608 299.851 7.93608H296.667C296.312 7.93608 296.025 8.20702 296.025 8.54104V8.77814C296.025 9.28801 295.392 9.5754 294.978 9.24717C294.588 8.93753 294.15 8.65989 293.664 8.41365C292.682 7.91627 291.536 7.66698 290.226 7.66698C288.726 7.66698 287.369 8.01563 286.154 8.71231ZM293.68 11.923C294.398 12.3112 294.969 12.869 295.391 13.5955C295.814 14.3227 296.025 15.1931 296.025 16.2085C296.025 17.224 295.814 18.0953 295.391 18.8219C294.969 19.549 294.398 20.1061 293.68 20.4944C292.962 20.8827 292.191 21.0768 291.367 21.0768C290.564 21.0768 289.809 20.8781 289.101 20.4795C288.393 20.0815 287.823 19.5088 287.39 18.7621C286.957 18.0158 286.741 17.1445 286.741 16.1491C286.741 15.1538 286.957 14.2928 287.39 13.5656C287.823 12.8391 288.388 12.2866 289.086 11.908C289.783 11.5298 290.543 11.3406 291.367 11.3406C292.191 11.3406 292.962 11.5347 293.68 11.923Z" fill="white"></path>
</svg>