<svg xmlns="http://www.w3.org/2000/svg" fill="none" viewBox="0 0 48 48" height="48" width="48">
<path fill="#F3821E" d="M48 24.0002C48 37.2551 37.2548 48.0002 24 48.0002C10.7452 48.0002 0 37.2551 0 24.0002C0 10.7454 10.7452 0.000244141 24 0.000244141C37.2548 0.000244141 48 10.7454 48 24.0002ZM6.54545 15.273V13.0912H29.4545V17.4548H38.9673L39.204 18.2042L41.3858 24.7497L41.4545 24.921V33.8184H38.0116C37.5251 35.6937 35.8385 37.0912 33.8182 37.0912C31.7978 37.0912 30.1113 35.6937 29.6247 33.8184H20.5571C20.0705 35.6937 18.384 37.0912 16.3636 37.0912C14.3433 37.0912 12.6567 35.6937 12.1702 33.8184H8.72727V26.1821H10.9091V31.6366H12.1702C12.6567 29.7613 14.3433 28.3639 16.3636 28.3639C18.384 28.3639 20.0705 29.7613 20.5571 31.6366H27.2727V15.273H6.54545ZM7.63636 19.6366V17.4548H17.4545V19.6366H7.63636ZM37.3975 19.6366H29.4545V31.6366H29.6247C30.1113 29.7613 31.7978 28.3639 33.8182 28.3639C35.8385 28.3639 37.5251 29.7613 38.0116 31.6366H39.2727V25.2275L37.3975 19.6366ZM8.72727 24.0002V21.8184H15.2727V24.0002H8.72727ZM18.5455 32.7275C18.5455 31.509 17.5822 30.5457 16.3636 30.5457C15.1451 30.5457 14.1818 31.509 14.1818 32.7275C14.1818 33.9461 15.1451 34.9093 16.3636 34.9093C17.5822 34.9093 18.5455 33.9461 18.5455 32.7275ZM36 32.7275C36 31.509 35.0367 30.5457 33.8182 30.5457C32.5996 30.5457 31.6364 31.509 31.6364 32.7275C31.6364 33.9461 32.5996 34.9093 33.8182 34.9093C35.0367 34.9093 36 33.9461 36 32.7275Z" clip-rule="evenodd" fill-rule="evenodd"></path>
</svg>