<svg xmlns="http://www.w3.org/2000/svg" fill="none" viewBox="0 0 658 699" height="699" width="658">
<path fill="#071C35" d="M333.047 527.305L438.855 494.858L442.034 505.945L333.047 535.77V527.305Z"></path>
<path fill="#071C35" d="M155.289 304.873V401.069L167.986 406.711V302.522L155.289 304.873Z"></path>
<path fill="#071C35" d="M165.635 347.667L310.004 375.412L318.468 391.871L161.638 365.066L165.635 347.667Z"></path>
<path fill="#071C35" d="M310.004 341.554L304.832 513.197L314.707 506.614L323.171 337.322L310.004 341.554Z"></path>
<path fill="#071C35" d="M318.468 391.871C318.468 391.871 425.217 494.858 433.212 502.852C441.206 510.846 449.67 503.793 438.855 494.858C428.04 485.923 318.47 376.823 318.47 376.823V391.871H318.468Z"></path>
<path fill="#071C35" d="M161.638 365.066L301.539 518.841L288.843 522.132L161.638 384.616V365.066Z"></path>
<path fill="#40ACAC" d="M406.202 387.57C445.725 382.326 484.622 426.312 496.597 487.616C501.149 485.443 503.855 480.349 502.756 475.12C489.866 413.85 443.333 370.152 401.23 375.738C358.41 381.419 329.966 436.024 335.341 499.739C335.752 504.616 340.153 508.171 345.007 507.55C340.644 445.32 366.716 392.809 406.202 387.57Z"></path>
<path fill="#53A2ED" d="M484.411 501.503C477.124 446.576 443.457 405.732 409.214 410.276C374.97 414.819 353.119 463.029 360.406 517.955C367.694 572.882 401.36 613.726 435.604 609.183C469.846 604.639 491.698 556.429 484.411 501.503ZM434.929 604.1C402.437 608.411 370.491 569.654 363.575 517.535C356.66 465.416 377.396 419.67 409.888 415.359C442.38 411.049 474.327 449.805 481.242 501.924C488.157 554.044 467.422 599.789 434.929 604.1Z"></path>
<path fill="#0C1B44" d="M498.566 499.624C489.615 432.158 448.261 381.989 406.201 387.57C364.14 393.151 337.3 452.367 346.251 519.834C355.203 587.3 396.556 637.469 438.617 631.889C480.677 626.309 507.517 567.092 498.566 499.625V499.624ZM437.226 621.408C398.775 626.509 360.969 580.645 352.786 518.967C344.602 457.289 369.14 403.153 407.592 398.05C446.044 392.949 483.85 438.813 492.033 500.491C500.216 562.169 475.678 616.305 437.226 621.408Z"></path>
<path fill="#DC4C22" d="M492.033 500.491C483.85 438.813 446.044 392.948 407.592 398.05C369.14 403.152 344.603 457.288 352.786 518.967C360.969 580.646 398.775 626.51 437.226 621.408C475.678 616.306 500.216 562.17 492.033 500.491ZM435.604 609.182C401.36 613.726 367.694 572.882 360.406 517.955C353.119 463.029 374.971 414.819 409.214 410.275C443.456 405.732 477.124 446.576 484.411 501.503C491.698 556.429 469.846 604.639 435.604 609.182Z"></path>
<path stroke-miterlimit="10" stroke-width="1.87369" stroke="#53A2ED" d="M405.231 415.031L433.212 502.852"></path>
<path stroke-miterlimit="10" stroke-width="1.87369" stroke="#53A2ED" d="M429.215 415.031L433.212 502.852"></path>
<path stroke-miterlimit="10" stroke-width="1.87369" stroke="#53A2ED" d="M445.951 426.068L433.212 502.852"></path>
<path stroke-miterlimit="10" stroke-width="1.87369" stroke="#53A2ED" d="M461.223 443.521L433.212 502.852"></path>
<path stroke-miterlimit="10" stroke-width="1.87369" stroke="#53A2ED" d="M473.44 467.083L433.212 502.852"></path>
<path stroke-miterlimit="10" stroke-width="1.87369" stroke="#53A2ED" d="M480.858 491.519L433.212 502.852"></path>
<path stroke-miterlimit="10" stroke-width="1.87369" stroke="#53A2ED" d="M484.349 520.317L433.212 502.852"></path>
<path stroke-miterlimit="10" stroke-width="1.87369" stroke="#53A2ED" d="M482.572 545.175L433.212 502.852"></path>
<path stroke-miterlimit="10" stroke-width="1.87369" stroke="#53A2ED" d="M474.831 566.245L433.212 502.852"></path>
<path stroke-miterlimit="10" stroke-width="1.87369" stroke="#53A2ED" d="M464.277 589.258L433.212 502.852"></path>
<path stroke-miterlimit="10" stroke-width="1.87369" stroke="#53A2ED" d="M445.086 604.427L433.212 502.852"></path>
<path stroke-miterlimit="10" stroke-width="1.87369" stroke="#53A2ED" d="M426.041 606.897L433.212 502.852"></path>
<path stroke-miterlimit="10" stroke-width="1.87369" stroke="#53A2ED" d="M405.937 599.137L433.212 502.852"></path>
<path stroke-miterlimit="10" stroke-width="1.87369" stroke="#53A2ED" d="M387.541 582.208L433.212 502.852"></path>
<path stroke-miterlimit="10" stroke-width="1.87369" stroke="#53A2ED" d="M374.828 562.642L433.212 502.852"></path>
<path stroke-miterlimit="10" stroke-width="1.87369" stroke="#53A2ED" d="M370.028 538.207L433.212 502.852"></path>
<path stroke-miterlimit="10" stroke-width="1.87369" stroke="#53A2ED" d="M387.541 422.438L433.212 502.852"></path>
<path stroke-miterlimit="10" stroke-width="1.87369" stroke="#53A2ED" d="M367.41 456.175L433.212 502.852"></path>
<path stroke-miterlimit="10" stroke-width="1.87369" stroke="#53A2ED" d="M361.738 481.046L433.212 502.852"></path>
<path stroke-miterlimit="10" stroke-width="1.87369" stroke="#53A2ED" d="M362.61 506.354L433.212 502.852"></path>
<path stroke-miterlimit="10" stroke-width="1.87369" stroke="#53A2ED" d="M165.832 533.98L83.7849 501.746"></path>
<path stroke-miterlimit="10" stroke-width="1.87369" stroke="#53A2ED" d="M83.7849 528.665L165.832 533.98"></path>
<path stroke-miterlimit="10" stroke-width="1.87369" stroke="#53A2ED" d="M81.6577 550.84L165.833 533.98"></path>
<path stroke-miterlimit="10" stroke-width="1.87369" stroke="#53A2ED" d="M89.2174 575.86L165.833 533.98"></path>
<path fill="#40ACAC" d="M134.604 405.294C180.3 399.441 225.271 448.54 239.117 516.973C244.381 514.548 247.509 508.862 246.236 503.024C231.334 434.631 177.534 385.851 128.857 392.087C79.3505 398.429 46.4636 459.381 52.678 530.506C53.1539 535.95 58.2403 539.919 63.8539 539.225C58.8099 469.76 88.9513 411.142 134.604 405.294Z"></path>
<path fill="#53A2ED" d="M225.027 532.474C216.602 471.16 177.677 425.567 138.087 430.639C98.496 435.71 73.2324 489.526 81.6578 550.84C90.0831 612.153 129.008 657.746 168.598 652.675C208.188 647.603 233.453 593.787 225.027 532.474ZM167.819 647C130.251 651.811 93.3171 608.549 85.3214 550.37C77.327 492.191 101.299 441.125 138.866 436.314C176.433 431.501 213.368 474.764 221.364 532.943C229.358 591.123 205.386 642.188 167.819 647Z"></path>
<path fill="#0C1B44" d="M241.393 530.378C231.044 455.067 183.233 399.065 134.604 405.294C85.9759 411.523 54.9438 477.625 65.2928 552.937C75.6418 628.248 123.453 684.25 172.082 678.021C220.71 671.791 251.742 605.69 241.393 530.378ZM170.474 666.321C126.018 672.016 82.3084 620.818 72.8475 551.969C63.3867 483.118 91.7556 422.688 136.213 416.993C180.67 411.299 224.379 462.496 233.841 531.346C243.302 600.196 214.933 660.627 170.475 666.321H170.474Z"></path>
<path fill="#DC4C22" d="M233.839 531.346C224.378 462.495 180.668 411.298 136.211 416.993C91.7544 422.688 63.3842 483.118 72.8451 551.969C82.306 620.819 126.015 672.016 170.472 666.321C214.928 660.627 243.3 600.196 233.839 531.346ZM168.598 652.675C129.007 657.746 90.0831 612.153 81.6577 550.84C73.2324 489.526 98.4959 435.71 138.087 430.639C177.677 425.567 216.602 471.16 225.027 532.474C233.453 593.787 208.189 647.603 168.598 652.675Z"></path>
<path stroke-miterlimit="10" stroke-width="1.87369" stroke="#53A2ED" d="M137.46 433.922L165.385 534.716"></path>
<path stroke-miterlimit="10" stroke-width="1.87369" stroke="#53A2ED" d="M161.211 435.948L165.833 533.98"></path>
<path stroke-miterlimit="10" stroke-width="1.87369" stroke="#53A2ED" d="M183.275 449.63L165.833 533.98"></path>
<path stroke-miterlimit="10" stroke-width="1.87369" stroke="#53A2ED" d="M198.111 466.647L165.833 533.98"></path>
<path stroke-miterlimit="10" stroke-width="1.87369" stroke="#53A2ED" d="M212.51 493.264L165.833 533.98"></path>
<path stroke-miterlimit="10" stroke-width="1.87369" stroke="#53A2ED" d="M220.8 522.935L165.833 533.98"></path>
<path stroke-miterlimit="10" stroke-width="1.87369" stroke="#53A2ED" d="M223.855 553.479L165.833 533.98"></path>
<path stroke-miterlimit="10" stroke-width="1.87369" stroke="#53A2ED" d="M222.901 581.225L165.833 533.98"></path>
<path stroke-miterlimit="10" stroke-width="1.87369" stroke="#53A2ED" d="M215.564 607.148L165.833 533.98"></path>
<path stroke-miterlimit="10" stroke-width="1.87369" stroke="#53A2ED" d="M201.165 630.274L165.833 533.98"></path>
<path stroke-miterlimit="10" stroke-width="1.87369" stroke="#53A2ED" d="M179.56 647.366L165.833 533.98"></path>
<path stroke-miterlimit="10" stroke-width="1.87369" stroke="#53A2ED" d="M157.541 650.123L165.833 533.98"></path>
<path stroke-miterlimit="10" stroke-width="1.87369" stroke="#53A2ED" d="M134.298 641.461L165.833 533.98"></path>
<path stroke-miterlimit="10" stroke-width="1.87369" stroke="#53A2ED" d="M113.03 622.563L165.833 533.98"></path>
<path stroke-miterlimit="10" stroke-width="1.87369" stroke="#53A2ED" d="M97.032 601.557L165.833 533.98"></path>
<path stroke-miterlimit="10" stroke-width="1.87369" stroke="#53A2ED" d="M113.03 444.215L164.949 535.152"></path>
<path stroke-miterlimit="10" stroke-width="1.87369" stroke="#53A2ED" d="M90.3351 480.61L165.833 533.98"></path>
<path fill="#071C35" d="M338.689 535.77C338.689 551.558 333.517 566.337 310.003 563.985C298.374 562.822 288.842 546.954 288.842 531.166C288.842 515.378 298.316 502.578 310.003 502.578C321.69 502.578 338.689 519.981 338.689 535.77Z"></path>
<path fill="#071C35" d="M379.408 450.707C379.408 450.707 429.529 499.171 433.212 502.852C441.206 510.846 449.67 503.792 438.855 494.857C434.024 490.867 383.82 441.582 383.82 441.582L379.409 450.708L379.408 450.707Z"></path>
<path fill="#071C35" d="M404.58 505.369L438.855 494.858L442.034 505.945L407.797 515.313L404.58 505.369Z"></path>
<path fill="#071C35" d="M166.049 387.147C166.049 387.147 162.614 514.853 161.674 526.139C160.733 537.425 167.317 546.831 168.727 526.139C170.138 505.447 181.153 392.789 181.153 392.789L166.049 387.147Z"></path>
<path fill="#071C35" d="M98.7283 270.664C98.7283 270.664 110.027 278.558 116.022 283.309C122.018 288.061 124.84 295.468 136.832 295.468C148.823 295.468 161.546 291.732 165.073 291.732C168.601 291.732 177.127 284.181 183.432 278.185C189.736 272.19 187.86 267.612 200.317 268.662C211.556 269.61 240.121 268.848 245.603 268.69C246.11 268.675 246.521 269.082 246.521 269.589V276.925C246.521 277.425 246.114 277.828 245.614 277.824C245.614 277.824 212.716 276.774 204.592 277.48C196.467 278.185 182.62 300.053 175.604 301.111C163.093 302.997 132.186 307.812 124.811 304.638C117.436 301.464 97.6853 281.596 90.2792 281.126C83.7313 280.71 67.6788 281.03 64.0451 281.11C63.6129 281.12 63.2406 280.82 63.1507 280.396L61.7104 273.602"></path>
<path fill="#080808" d="M204.196 42.4691C204.196 42.4691 200.433 22.2483 211.72 20.8368C223.008 19.4253 257.806 22.247 268.622 34.9444C279.438 47.6418 278.497 67.8626 296.837 67.8626C315.177 67.8626 342.952 47.0996 351.857 46.2302C371.138 44.3491 366.787 66.2512 374.9 65.9814C389.008 65.5118 424.277 34.9444 433.683 38.7068C443.089 42.4691 447.79 48.1114 448.261 55.6362C448.732 63.1609 448.261 67.8626 448.261 67.8626C448.261 67.8626 476.947 73.9758 471.304 102.191C465.66 130.406 448.261 130.406 430.391 128.055C412.521 125.705 384.306 153.92 372.549 154.39C360.792 154.859 339.161 141.223 322.702 143.573C306.242 145.924 258.746 157.681 258.746 157.681L204.196 42.4691Z"></path>
<path fill="#DC4C22" d="M222.066 92.3167L228.414 155.097L254.984 126.881C254.984 126.881 253.691 109.187 253.22 103.78C252.749 98.3725 246.755 83.8527 246.755 83.8527L222.066 92.3167Z"></path>
<path fill="#F3821E" d="M206.312 38.2371C206.312 38.2371 203.02 50.2287 203.49 53.9911C203.96 57.7534 205.136 59.3985 202.315 61.9855C199.493 64.5724 195.73 68.3335 199.258 69.9799C202.786 71.6262 203.02 72.8017 203.02 72.8017C203.02 72.8017 202.551 77.2685 203.02 78.9149C203.49 80.5612 203.961 81.2658 203.726 84.3224C203.491 87.379 204.196 95.3734 207.958 96.314C211.72 97.2545 231.941 92.0819 239.23 89.9659C246.519 87.8499 250.046 88.7905 249.575 85.499C249.104 82.2076 247.814 74.2244 249.224 73.2838C250.635 72.3432 261.802 68.3335 254.042 60.3391C246.283 52.3447 239.7 63.8667 239.7 63.8667C239.7 63.8667 230.295 54.6968 224.417 49.0533C218.538 43.4097 218.069 36.3559 215.247 37.0617C212.425 37.7674 206.312 38.2371 206.312 38.2371Z"></path>
<path fill="#F3821E" d="M247.542 88.1109L254.984 126.881L264.86 114.655C264.86 114.655 261.568 108.071 256.763 101.253C251.957 94.4353 248.716 78.7375 248.716 78.7375L247.542 88.1122V88.1109Z"></path>
<path fill="#F3821E" d="M181.624 158.388C181.624 158.388 168.222 204.238 164.93 206.354C161.637 208.471 131.777 231.278 123.311 235.745C114.846 240.212 95.5657 255.496 87.3364 257.847C79.1072 260.198 65.9401 265.372 65.7041 269.604C65.468 273.836 67.8201 286.062 71.1115 285.828C74.403 285.593 74.8739 283.309 74.8739 283.309C74.8739 283.309 75.1087 285.599 78.1653 285.831C81.2219 286.064 82.3974 285.831 82.3974 285.831C82.3974 285.831 81.6916 287.003 85.454 287.239C89.2164 287.475 94.9349 286.194 93.9181 283.311C88.5106 267.959 98.0202 274.898 98.726 270.666C99.4317 266.434 98.2925 265.237 107.951 264.133C116.2 263.19 121.421 259.439 126.838 258.788C138.594 257.377 152.702 252.675 162.341 249.618C171.981 246.561 189.851 234.638 196.906 218.968C203.961 203.298 212.66 177.433 212.66 177.433L197.141 161.679L181.622 158.388H181.624Z"></path>
<path fill="#F3821E" d="M268.151 161.445C268.151 161.445 273.324 191.071 271.913 198.125C270.503 205.179 249.34 242.8 238.995 248.442C228.65 254.085 212.661 261.609 212.661 266.312C212.661 271.015 213.602 283.242 216.658 283.242C219.715 283.242 220.186 282.066 220.186 282.066C220.186 282.066 221.832 283.242 224.889 283.242C227.945 283.242 227.711 281.595 227.711 281.595C227.711 281.595 229.357 283.712 231.943 283.242C234.528 282.772 235.47 280.185 235.47 280.185C235.47 280.185 237.821 283.007 240.643 280.185C243.465 277.363 242.41 263.962 242.41 263.962C242.41 263.962 272.855 246.562 281.555 238.803C290.256 231.043 299.895 222.108 301.541 206.825C303.188 191.542 305.069 180.255 305.304 170.85C305.539 161.446 304.128 154.627 304.128 154.627L268.154 161.446L268.151 161.445Z"></path>
<path fill="#DC4C22" d="M154.202 252.175C162.049 250.411 186.327 242.799 196.907 218.968C203.881 203.262 212.661 177.433 212.661 177.433L197.142 161.679C197.142 161.679 186.041 185.542 178.802 205.686C165.635 242.328 154.202 252.175 154.202 252.175Z"></path>
<path fill="#DC4C22" d="M268.151 161.445C268.151 161.445 273.324 191.071 271.913 198.125C270.503 205.179 286.139 158.036 286.139 158.036L268.151 161.445Z"></path>
<path fill="#FDF5E3" d="M224.888 115.125C224.888 115.125 224.653 148.983 227.709 150.159C230.766 151.334 252.162 129.938 257.1 121.238C262.038 112.538 258.276 108.54 266.741 108.776C275.206 109.013 290.724 110.423 294.956 122.178C299.188 133.934 306.007 158.623 306.007 158.623C306.007 158.623 285.08 158.388 280.143 160.739C275.205 163.09 267.445 167.087 267.445 167.087C267.445 167.087 289.782 203.062 294.72 208.94C299.658 214.819 306.006 223.519 306.006 223.519C306.006 223.519 268.903 264.33 252.652 252.675C240.522 243.974 233.35 233.159 233.35 233.159C233.35 233.159 222.534 204.004 220.183 199.772C217.833 195.539 209.367 191.777 208.661 187.78C208.355 186.044 207.86 181.419 207.237 175.826C206.428 168.538 205.724 159.054 208.207 146.525C212.659 124.06 212.189 115.595 212.189 115.595L224.886 115.126L224.888 115.125Z"></path>
<path fill="#FDF5E3" d="M180.683 159.094C180.683 159.094 190.324 136.521 196.203 127.587C202.081 118.653 212.191 115.595 212.191 115.595C212.191 115.595 212.423 118.453 211.957 123.179C211.3 129.838 209.766 139.507 208.665 144.047C206.784 151.806 207.241 175.827 207.241 175.827C207.241 175.827 199.26 167.326 195.028 164.973C190.796 162.621 180.686 159.095 180.686 159.095L180.683 159.094Z"></path>
<g style="mix-blend-mode:multiply">
<path fill="#FDF5E3" d="M260.157 122.413C260.157 126.176 261.803 146.396 264.624 154.156C267.444 161.916 268.386 167.088 268.386 167.088L274.197 163.661C274.197 163.661 267.916 152.746 266.505 144.751C265.093 136.757 260.157 118.652 260.157 122.414V122.413Z"></path>
</g>
<g style="mix-blend-mode:multiply">
<path fill="#FDF5E3" d="M212.661 192.766C212.661 192.766 219.48 197.889 228.18 194.832C236.88 191.776 239.937 188.719 239.937 188.719C239.937 188.719 245.581 192.272 253.575 192.141C261.569 192.009 277.558 190.129 277.558 190.129L271.445 217.875C271.445 217.875 251.459 205.649 243.465 206.589C235.47 207.53 225.107 211.483 225.107 211.483L220.187 199.77L212.661 192.766Z"></path>
</g>
<g opacity="0.5" style="mix-blend-mode:multiply">
<path fill="#FDF5E3" d="M208.664 144.044C209.172 141.944 209.716 138.774 210.238 135.272C208.134 139.555 200.306 155.514 195.615 165.331C199.955 168.07 207.239 175.825 207.239 175.825C207.239 175.825 206.781 151.804 208.663 144.044H208.664Z"></path>
</g>
<path fill="#F3821E" d="M256.394 276.188C256.394 276.188 203.255 303.463 194.32 307.695C185.385 311.927 166.575 323.684 180.682 352.37C194.79 381.056 273.324 492.037 273.324 492.037C273.324 492.037 265.799 508.495 262.978 517.43C260.158 526.365 254.984 542.824 262.038 537.651C269.092 532.479 292.605 503.323 294.956 494.388C297.307 485.453 283.643 472.568 279.437 461.47C250.751 385.758 231.941 364.596 230.53 356.602C229.118 348.607 240.447 341.083 252.653 336.851C264.86 332.619 292.604 325.565 292.604 325.565L291.663 268.663L256.394 276.188Z"></path>
<path fill="#DC4C22" d="M279.437 461.47C250.751 385.758 231.941 364.596 230.53 356.602C229.12 348.607 240.447 341.083 252.653 336.851C264.86 332.619 292.604 325.565 292.604 325.565L291.663 268.663L275.251 272.165C275.36 273.069 275.326 274.038 275.102 275.071C273.054 284.553 275.902 294.495 274.295 304.096C272.483 314.926 264.937 321.702 254.182 323.26C228.401 326.995 193.983 324.981 183.402 354.546C183.205 355.095 182.927 355.599 182.616 356.082C200.773 389.513 273.322 492.037 273.322 492.037C273.322 492.037 272.707 493.386 271.762 495.516C272.021 495.701 272.276 495.903 272.527 496.125C277.411 500.442 281.512 505.769 284.726 511.516C289.871 504.477 294.034 497.884 294.955 494.389C297.306 485.454 283.641 472.569 279.436 461.471L279.437 461.47Z"></path>
<path fill="#235F6E" d="M306.477 223.519C306.477 223.519 358.44 243.27 357.03 270.075C355.62 296.88 348.566 318.041 344.804 326.036C341.041 334.03 336.809 338.733 336.809 338.733L285.551 318.041C285.551 318.041 278.498 291.236 270.973 287.474C263.448 283.712 256.394 276.188 256.394 276.188L252.653 252.676L306.477 223.52V223.519Z"></path>
<path fill="#0C1B44" d="M318.049 244.408C316.13 237.227 311.614 231.087 308.518 224.341C307.225 223.803 306.477 223.517 306.477 223.517L259.803 248.8C262.905 255.428 264.236 262.175 266.064 269.217C267.774 275.806 270.639 282.028 272.51 288.564C279.429 294.794 285.55 318.04 285.55 318.04L285.869 318.169C291.37 309.968 297.301 302.034 302.277 293.5C307.376 284.757 312.012 276.061 319.007 268.628C319.425 268.184 319.859 267.755 320.286 267.319C320.466 259.601 320.062 251.944 318.049 244.408Z" opacity="0.5"></path>
<path fill="#F3821E" d="M285.55 318.04L336.808 338.732C336.808 338.732 323.17 364.596 317.057 370.238C310.944 375.881 305.3 387.638 310.003 390.459C314.706 393.281 329.283 402.216 336.808 421.027C344.333 439.837 356.559 477.457 364.083 487.333C371.606 497.208 372.547 503.322 379.131 506.613C385.715 509.904 379.131 548.936 374.428 555.52C369.725 562.104 361.261 575.271 360.32 571.979C359.38 568.686 365.493 525.422 361.261 516.489C357.029 507.555 270.15 406.975 264.387 399.394C255.452 387.638 257.717 373.339 270.031 350.018C282.056 327.241 285.55 318.04 285.55 318.04Z"></path>
<path fill="#F3821E" d="M269.621 170.576C269.621 170.576 272.815 193.618 271.913 198.125C270.503 205.179 249.34 242.8 238.995 248.443C228.65 254.085 212.661 261.61 212.661 266.312C212.661 271.015 213.602 283.242 216.658 283.242C219.715 283.242 220.186 282.066 220.186 282.066C220.186 282.066 221.832 283.242 224.889 283.242C227.945 283.242 227.711 281.596 227.711 281.596C227.711 281.596 229.357 283.712 231.943 283.242C234.528 282.772 235.47 280.185 235.47 280.185C235.47 280.185 237.821 283.007 240.643 280.185C243.465 277.364 242.41 263.962 242.41 263.962C242.41 263.962 272.855 246.563 281.555 238.803C290.256 231.043 299.895 222.108 301.541 206.825C302.423 198.634 303.373 191.591 304.101 185.37C304.73 179.984 269.622 170.577 269.622 170.577L269.621 170.576Z"></path>
<path fill="#DC4C22" d="M269.346 168.778C270.779 178.032 272.875 193.319 271.913 198.125C270.849 203.444 279.479 177.943 283.789 165.081C285.194 160.886 269.346 168.779 269.346 168.779V168.778Z"></path>
<path fill="#071C35" d="M165.635 347.667L247.542 363.408V379.748L161.638 365.066L165.635 347.667Z"></path>
<path fill="#071C35" d="M254.637 467.288L301.539 518.841L288.843 522.132L250.387 479.626L254.637 467.288Z"></path>
</svg>