<?xml version="1.0"?>
<svg id="Layer_2" data-name="Layer 2" xmlns="http://www.w3.org/2000/svg" viewBox="0 0 121.18 230.9">
  <defs>
    
  </defs>
  <g id="Layer_1-2" data-name="Layer 1">
    <g>
      <g>
        <path class="cls-4" d="M57.51,230.9s.01,0,.02,0,.01,0,.02,0c0-.47-.02-.94-.02-1.42,0,.48-.01.94-.02,1.42Z"></path>
        <path class="cls-1" d="M57.55,89.75s-.01,0-.02,0-.01,0-.02,0c-.43,38.31-18.17,69.13-40,69.15h0c22.1.02,40.02,31.61,40.02,70.57,0-38.96,17.92-70.55,40.02-70.57h0c-21.83-.02-39.57-30.85-40-69.16Z"></path>
      </g>
      <g>
        <path class="cls-2" d="M21.44,127.38s0,0,.01,0,0,0,.01,0c0-.25-.01-.5-.01-.76,0,.25,0,.51-.01.76Z"></path>
        <path class="cls-5" d="M21.46,51.73s0,0-.01,0,0,0-.01,0c-.23,20.53-9.74,37.05-21.44,37.06h0c11.85.01,21.45,16.94,21.45,37.82,0-20.88,9.6-37.81,21.45-37.82h0c-11.7-.01-21.21-16.53-21.44-37.06Z"></path>
      </g>
      <g>
        <path class="cls-2" d="M91.32,118.62s.01,0,.02,0,.01,0,.02,0c0-.35-.02-.7-.02-1.06,0,.35-.01.7-.02,1.06Z"></path>
        <path class="cls-5" d="M91.35,13.36s-.01,0-.02,0-.01,0-.02,0c-.32,28.57-13.55,51.56-29.83,51.57h0c16.48.02,29.84,23.57,29.84,52.63,0-29.06,13.36-52.62,29.84-52.63h0c-16.28-.02-29.51-23.01-29.83-51.57Z"></path>
      </g>
      <g>
        <path class="cls-2" d="M50.2,39.64s0,0,0,0,0,0,0,0c0-.13,0-.26,0-.4,0,.13,0,.27,0,.4Z"></path>
        <path class="cls-3" d="M50.21,0s0,0,0,0,0,0,0,0c-.12,10.76-5.1,19.42-11.23,19.42h0c6.21,0,11.24,8.88,11.24,19.82,0-10.94,5.03-19.82,11.24-19.82h0c-6.13,0-11.11-8.66-11.23-19.42Z"></path>
      </g>
    </g>
  </g>
</svg>