<?xml version="1.0"?>
<svg id="Layer_2" data-name="Layer 2" xmlns="http://www.w3.org/2000/svg" viewBox="0 0 115 236.92">
  <defs>
    
  </defs>
  <g id="Layer_1-2" data-name="Layer 1">
    <g>
      <g>
        <path class="cls-1" d="M64.78,236.92s.02,0,.03,0,.02,0,.03,0c0-.59-.03-1.18-.03-1.78,0,.6-.02,1.18-.03,1.78Z"></path>
        <path class="cls-1" d="M64.83,59.89s-.02,0-.03,0-.02,0-.03,0c-.54,48.04-22.78,86.71-50.16,86.73h0c27.72.03,50.19,39.64,50.19,88.51,0-48.87,22.47-88.48,50.19-88.51h0c-27.38-.03-49.62-38.69-50.16-86.73Z"></path>
      </g>
      <g>
        <path class="cls-1" d="M29.83,105.26s.01,0,.02,0,.01,0,.02,0c0-.35-.02-.7-.02-1.06,0,.35-.01.7-.02,1.06Z"></path>
        <path class="cls-1" d="M29.86,0s-.01,0-.02,0-.01,0-.02,0c-.32,28.57-13.55,51.56-29.83,51.57h0c16.48.02,29.84,23.57,29.84,52.63,0-29.06,13.36-52.62,29.84-52.63h0C43.41,51.56,30.18,28.57,29.86,0Z"></path>
      </g>
      <g>
        <path class="cls-1" d="M99.01,91.75s0,0,0,0,0,0,0,0c0-.13,0-.26,0-.4,0,.13,0,.27,0,.4Z"></path>
        <path class="cls-1" d="M99.02,52.1s0,0,0,0,0,0,0,0c-.12,10.76-5.1,19.42-11.23,19.42h0c6.21,0,11.24,8.88,11.24,19.82,0-10.94,5.03-19.82,11.24-19.82h0c-6.13,0-11.11-8.66-11.23-19.42Z"></path>
      </g>
    </g>
  </g>
</svg>